#!OML:ASF E:\Style3\Style3.ASF
:FULLY-SPECIFIED
:DEGREES
2605
root 0.427921 17.8565 0.7826 77.4215 90.8346 61.3181
lowerback -12.7328 -2.00001 0.0352347
upperback -10.7335 -1.97469 1.73418
thorax -4.11647 -0.65414 1.59935
lowerneck -14.901 -2.57946 -5.70584
upperneck 26.4848 -3.80919 7.45003
head 11.3117 -1.19993 3.21346
rclavicle -2.61899e-014 -3.97569e-016
rhumerus 42.0298 33.5424 -50.5735
rradius 63.7455
rwrist 15.3365
rhand -41.9102 46.9675
rfingers 7.12502
rthumb -14.8087 17.5166
lclavicle -2.61899e-014 -3.97569e-016
lhumerus 33.353 -26.0117 57.3562
lradius 68.201
lwrist -16.1181
lhand -46.9431 30.9125
lfingers 7.12502
lthumb -19.6526 59.9391
rfemur -15.1957 12.0848 18.7038
rtibia 14.6469
rfoot -14.332 -21.471
rtoes -14.1213
lfemur 0 0 0
ltibia 0
lfoot 0 0
ltoes 0
2606
root 0.434404 17.8562 0.783298 77.163 90.8142 61.0415
lowerback -12.7299 -2.01467 -0.00476726
upperback -10.7518 -1.9889 1.73843
thorax -4.13589 -0.657942 1.62531
lowerneck -14.8504 -2.55796 -5.67535
upperneck 26.4087 -3.77837 7.41963
head 11.2687 -1.18913 3.19886
rclavicle 2.03754e-014 -1.19271e-015
rhumerus 41.4247 33.9412 -49.4321
rradius 66.4391
rwrist 15.2717
rhand -41.8389 47.2693
rfingers 7.12502
rthumb -14.74 17.8134
lclavicle 2.03754e-014 -1.19271e-015
lhumerus 32.3109 -26.4037 56.6838
lradius 71.2096
lwrist -15.8738
lhand -46.752 29.7665
lfingers 7.12502
lthumb -19.4688 58.8118
rfemur -15.1781 12.128 18.6763
rtibia 14.6182
rfoot -14.4511 -21.4434
rtoes -13.5521
lfemur 0 0 0
ltibia 0
lfoot 0 0
ltoes 0
2607
root 0.442939 17.8547 0.784129 76.3693 90.8518 60.2392
lowerback -12.682 -2.03153 -0.00497815
upperback -10.7795 -2.00857 1.75471
thorax -4.19062 -0.66608 1.64242
lowerneck -14.7852 -2.55339 -5.67336
upperneck 26.3021 -3.78261 7.45637
head 11.2161 -1.18951 3.20838
rclavicle -1.00883e-014 -2.78299e-015
rhumerus 40.6265 34.2821 -48.5415
rradius 69.134
rwrist 15.4544
rhand -41.7481 47.4945
rfingers 7.12502
rthumb -14.6525 18.0322
lclavicle -1.00883e-014 -2.78299e-015
lhumerus 31.2076 -26.8819 56.0034
lradius 74.1023
lwrist -15.9633
lhand -47.1857 28.8109
lfingers 7.12502
lthumb -19.8858 57.8135
rfemur -15.1363 12.1672 18.7167
rtibia 14.5987
rfoot -14.5393 -21.4805
rtoes -13.1765
lfemur 0 0 0
ltibia 0
lfoot 0 0
ltoes 0
2608
root 0.45227 17.8517 0.783776 76.5888 90.9232 60.4815
lowerback -12.6151 -2.02902 0.0275437
upperback -10.7985 -2.00554 1.79437
thorax -4.2472 -0.664204 1.66808
lowerneck -14.7049 -2.55858 -5.71222
upperneck 26.1997 -3.78019 7.4567
head 11.1619 -1.19573 3.21249
rclavicle -1.24737e-014 1.94809e-014
rhumerus 39.7248 34.6799 -47.6169
rradius 71.7239
rwrist 15.9596
rhand -42.1442 47.7083
rfingers 7.12502
rthumb -15.0341 18.2741
lclavicle -1.24737e-014 1.94809e-014
lhumerus 29.9339 -27.3937 55.4449
lradius 76.9196
lwrist -16.1931
lhand -47.6081 28.3654
lfingers 7.12502
lthumb -20.2918 57.3254
rfemur -15.0555 12.0924 18.8274
rtibia 14.5849
rfoot -14.4426 -21.4909
rtoes -13.7073
lfemur 0 0 0
ltibia 0
lfoot 0 0
ltoes 0
2609
root 0.459545 17.8516 0.784283 74.007 90.9148 57.8747
lowerback -12.6364 -2.07256 -0.0389615
upperback -10.8035 -2.05625 1.82527
thorax -4.2362 -0.684194 1.73271
lowerneck -14.7247 -2.53625 -5.74494
upperneck 26.1748 -3.74979 7.49623
head 11.1554 -1.18089 3.23631
rclavicle 5.26779e-015 -1.98785e-015
rhumerus 38.9214 35.0918 -46.7146
rradius 74.1443
rwrist 16.578
rhand -42.6559 47.909
rfingers 7.12502
rthumb -15.5269 18.5124
lclavicle 5.26779e-015 -1.98785e-015
lhumerus 28.665 -27.9172 54.7557
lradius 79.8462
lwrist -16.1295
lhand -47.7141 28.867
lfingers 7.12502
lthumb -20.3937 57.8162
rfemur -15.0404 12.1494 18.7925
rtibia 14.5584
rfoot -14.5178 -21.56
rtoes -13.6328
lfemur 0 0 0
ltibia 0
lfoot 0 0
ltoes 0
2610
root 0.46684 17.8507 0.784939 71.5434 90.9069 55.3905
lowerback -12.6515 -2.11449 -0.120024
upperback -10.8024 -2.1047 1.84408
thorax -4.22166 -0.703023 1.79305
lowerneck -14.7464 -2.53148 -5.7654
upperneck 26.1421 -3.75251 7.55321
head 11.1492 -1.17777 3.2596
rclavicle 7.25564e-015 2.54444e-014
rhumerus 38.0155 35.5188 -45.9247
rradius 76.6598
rwrist 17.0898
rhand -42.6904 48.3217
rfingers 7.12502
rthumb -15.5602 18.9277
lclavicle 7.25564e-015 2.54444e-014
lhumerus 27.6659 -28.4055 54.178
lradius 82.6159
lwrist -16.1817
lhand -47.3903 29.0913
lfingers 7.12502
lthumb -20.0825 58.0734
rfemur -15.0315 12.0879 18.7771
rtibia 14.5546
rfoot -14.5895 -21.5228
rtoes -13.4573
lfemur 0 0 0
ltibia 0
lfoot 0 0
ltoes 0
2611
root 0.47565 17.8508 0.785485 69.2639 90.9309 53.1097
lowerback -12.6813 -2.13307 -0.12301
upperback -10.7905 -2.12978 1.84361
thorax -4.19183 -0.715892 1.79095
lowerneck -14.745 -2.55051 -5.75781
upperneck 26.1061 -3.77948 7.54499
head 11.1373 -1.19131 3.25026
rclavicle 9.69075e-015 1.31198e-014
rhumerus 37.0752 35.9214 -45.2221
rradius 79.0741
rwrist 17.5374
rhand -42.7166 49.3124
rfingers 7.12502
rthumb -15.5854 19.9203
lclavicle 9.69075e-015 1.31198e-014
lhumerus 26.7056 -28.9293 53.5709
lradius 85.0183
lwrist -16.4187
lhand -47.4762 29.0399
lfingers 7.12502
lthumb -20.165 58.0133
rfemur -15.0293 12.0675 18.7881
rtibia 14.6168
rfoot -14.6962 -21.504
rtoes -13.3729
lfemur 0 0 0
ltibia 0
lfoot 0 0
ltoes 0
2612
root 0.481119 17.8478 0.78514 70.3162 90.8362 54.2333
lowerback -12.5385 -2.10471 -0.195738
upperback -10.7951 -2.08934 1.80813
thorax -4.27321 -0.693302 1.80209
lowerneck -14.6934 -2.58297 -5.78841
upperneck 26.0236 -3.82945 7.58725
head 11.1015 -1.21437 3.26175
rclavicle -2.77802e-014 6.75868e-015
rhumerus 36.0502 36.3219 -44.5531
rradius 81.4957
rwrist 17.9464
rhand -42.6394 49.7019
rfingers 7.12502
rthumb -15.511 20.3041
lclavicle -2.77802e-014 6.75868e-015
lhumerus 25.6543 -29.5821 52.8727
lradius 87.3039
lwrist -16.8833
lhand -47.8139 29.1874
lfingers 7.12502
lthumb -20.4896 58.1262
rfemur -14.971 12.1093 18.7069
rtibia 14.6645
rfoot -14.7349 -21.4699
rtoes -13.2611
lfemur 0 0 0
ltibia 0
lfoot 0 0
ltoes 0
2613
root 0.486723 17.8467 0.784789 72.1636 90.7381 56.111
lowerback -12.4607 -2.06092 -0.271125
upperback -10.7884 -2.02869 1.75758
thorax -4.30866 -0.661061 1.79858
lowerneck -14.6197 -2.61139 -5.77005
upperneck 25.8794 -3.88758 7.63642
head 11.038 -1.23699 3.26438
rclavicle 1.60022e-014 7.95139e-015
rhumerus 34.9748 36.7589 -43.9154
rradius 83.7174
rwrist 18.3888
rhand -42.714 50.2643
rfingers 7.12502
rthumb -15.5829 20.8721
lclavicle 1.60022e-014 7.95139e-015
lhumerus 22.7995 -30.1526 52.445
lradius 90.0047
lwrist -17.5543
lhand -48.795 29.0174
lfingers 7.12502
lthumb -21.4322 57.8519
rfemur -14.939 12.124 18.624
rtibia 14.6863
rfoot -14.7616 -21.3907
rtoes -13.0467
lfemur 0 0 0
ltibia 0
lfoot 0 0
ltoes 0
2614
root 0.494426 17.8451 0.785982 67.7667 90.8139 51.6687
lowerback -12.5321 -2.07251 -0.236962
upperback -10.7582 -2.04843 1.7494
thorax -4.23835 -0.674329 1.76673
lowerneck -14.5911 -2.62081 -5.7452
upperneck 25.6737 -3.91518 7.67365
head 10.9578 -1.24803 3.26369
rclavicle 2.38542e-015 4.37326e-015
rhumerus 33.8928 37.2109 -43.3022
rradius 85.9275
rwrist 18.8348
rhand -42.7431 50.8131
rfingers 7.12502
rthumb -15.611 21.423
lclavicle 2.38542e-015 4.37326e-015
lhumerus 22.9987 -30.5274 52.3673
lradius 92.8274
lwrist -18.373
lhand -48.5145 30.1215
lfingers 7.12502
lthumb -21.1627 58.9865
rfemur -14.9395 11.9219 18.7
rtibia 14.6804
rfoot -14.7633 -21.3069
rtoes -13.221
lfemur 0 0 0
ltibia 0
lfoot 0 0
ltoes 0
2615
root 0.503363 17.8437 0.785453 65.6345 90.9344 49.4641
lowerback -12.6421 -2.12741 -0.156648
upperback -10.7651 -2.12356 1.80602
thorax -4.18535 -0.713653 1.77157
lowerneck -14.5589 -2.60001 -5.74916
upperneck 25.6115 -3.88145 7.66222
head 10.9251 -1.23666 3.26294
rclavicle 2.05742e-014 -1.94809e-014
rhumerus 32.8253 37.7864 -42.6674
rradius 88.145
rwrist 19.714
rhand -42.6381 50.4989
rfingers 7.12502
rthumb -15.5098 21.101
lclavicle 2.05742e-014 -1.94809e-014
lhumerus 21.6739 -31.1088 51.8376
lradius 95.3344
lwrist -19.0995
lhand -48.8457 30.3978
lfingers 7.12502
lthumb -21.4809 59.2267
rfemur -14.9638 11.847 18.795
rtibia 14.6582
rfoot -14.8546 -21.3109
rtoes -13.2658
lfemur 0 0 0
ltibia 0
lfoot 0 0
ltoes 0
2616
root 0.510358 17.8435 0.784611 63.6343 90.9941 47.4385
lowerback -12.6185 -2.164 -0.137293
upperback -10.8066 -2.16873 1.83784
thorax -4.2414 -0.734247 1.79149
lowerneck -14.4192 -2.59322 -5.66875
upperneck 25.454 -3.85709 7.52502
head 10.8321 -1.24019 3.19731
rclavicle -2.26615e-014 1.27222e-014
rhumerus 31.8265 38.403 -42.0135
rradius 90.1533
rwrist 20.6689
rhand -42.5641 50.4798
rfingers 7.12502
rthumb -15.4385 21.0764
lclavicle -2.26615e-014 1.27222e-014
lhumerus 20.1703 -31.664 51.5619
lradius 97.5725
lwrist -20.0936
lhand -48.4957 30.1996
lfingers 7.12502
lthumb -21.1447 59.0666
rfemur -14.9263 11.9773 18.8095
rtibia 14.6084
rfoot -14.9155 -21.4634
rtoes -13.1889
lfemur 0 0 0
ltibia 0
lfoot 0 0
ltoes 0
2617
root 0.517379 17.8444 0.784455 63.5347 91.0758 47.281
lowerback -12.6168 -2.18316 -0.0742457
upperback -10.8735 -2.19131 1.85957
thorax -4.31608 -0.744974 1.77832
lowerneck -14.2714 -2.57908 -5.70761
upperneck 25.3626 -3.85252 7.61728
head 10.7711 -1.2342 3.23633
rclavicle -9.44227e-015 1.90833e-014
rhumerus 30.7282 39.0048 -41.5989
rradius 92.0096
rwrist 21.3672
rhand -42.5153 51.3495
rfingers 7.12502
rthumb -15.3916 21.9424
lclavicle -9.44227e-015 1.90833e-014
lhumerus 18.6254 -32.266 51.6252
lradius 99.4971
lwrist -21.3218
lhand -47.3551 29.5183
lfingers 7.12502
lthumb -20.0487 58.504
rfemur -14.9264 12.1134 18.8568
rtibia 14.5377
rfoot -14.8959 -21.608
rtoes -13.2025
lfemur 0 0 0
ltibia 0
lfoot 0 0
ltoes 0
